<?xml version="1.0" encoding="utf-8"?>
<!-- Generator: Adobe Illustrator 28.3.0, SVG Export Plug-In . SVG Version: 6.00 Build 0)  -->
<svg version="1.1" id="Layer_1" xmlns="http://www.w3.org/2000/svg" xmlns:xlink="http://www.w3.org/1999/xlink" x="0px" y="0px"
	 viewBox="0 0 240 234" style="enable-background:new 0 0 240 234;" xml:space="preserve">
<g>
	<path d="M101.5,87.1c-3.2-2.8-6.9-4.9-10.9-6c-4.5-1.3-9.2-2-13.9-1.9c-2.1,0-3.9,0-5.4,0.1c-1.4,0.1-3.1,0.1-4.9,0.2v66.7
		c1.2,0,2.3,0,3.2,0.1c1,0.1,2,0.1,3,0.2c1,0.1,2.2,0.1,3.5,0.1c4.9,0.1,9.7-0.7,14.3-2.3c4.1-1.4,7.9-3.7,11-6.8
		c3.1-3.1,5.6-6.9,7.1-11.1c1.7-4.8,2.6-9.9,2.5-15c0.1-4.8-0.7-9.6-2.4-14.1C107,93.3,104.6,89.8,101.5,87.1z"/>
	<path d="M197.5,0h-155C19,0,0,19,0,42.5v149C0,215,19,234,42.5,234h155c23.5,0,42.5-19,42.5-42.5v-149C240,19,221,0,197.5,0z
		 M130.8,131.3c-2,5.6-5.1,10.9-9,15.4c-3.7,4.2-8.1,7.8-13,10.7c-4.8,2.8-10,5-15.5,6.3c-5.3,1.3-10.8,2-16.3,2h-12
		c-4.2,0-8.2,0-11.8-0.1c-3.7-0.1-6.4-0.1-8.2-0.2c-0.6,0-1-0.5-1-1.6V61.4c-0.1-0.6,0.4-1.2,1.1-1.3c0,0,0,0,0.1,0
		c1.6-0.1,4-0.2,7.1-0.2c3.1-0.1,6.8-0.1,10.9-0.2c4.2-0.1,8.6-0.1,13.4-0.1c12.9,0,23.6,2.2,32,6.6c8,4,14.7,10.3,19.1,18.1
		c4.2,7.7,6.4,16.5,6.4,26.5C134.2,117.8,133.1,124.7,130.8,131.3z M199.8,154.8c-2.8,4-6.7,7.1-11.2,8.9
		c-4.9,2.1-10.9,3.2-18.1,3.2c-4.6,0-9.1-0.4-13.6-1.3c-3.4-0.6-6.7-1.7-9.7-3.2c-0.7-0.4-1.2-1.1-1.1-1.9v-17.4
		c0-0.3,0.1-0.7,0.4-0.9c0.3-0.2,0.6-0.1,0.9,0.1c3.7,2.3,7.7,3.9,11.9,4.9c3.8,1,7.8,1.5,11.8,1.5c3.8,0,6.5-0.5,8.3-1.4
		c1.6-0.7,2.7-2.4,2.7-4.2c0-1.4-0.8-2.7-2.4-4c-1.6-1.3-4.9-2.8-9.8-4.7c-5.1-1.8-9.8-4.2-14.2-7.2c-3.1-2.2-5.7-5.1-7.6-8.5
		c-1.6-3.2-2.4-6.7-2.3-10.2c0-4.3,1.2-8.4,3.4-12.1c2.5-4,6.2-7.2,10.5-9.2c4.7-2.4,10.6-3.5,17.7-3.5c4.1,0,8.3,0.3,12.4,0.9
		c2.9,0.4,5.7,1.2,8.4,2.3c0.4,0.1,0.8,0.5,1,0.9c0.1,0.4,0.2,0.8,0.2,1.2v16.3c0,0.4-0.2,0.8-0.5,1c-0.3,0.2-0.8,0.2-1.1,0
		c-3-1.6-6.2-2.7-9.6-3.4c-3.7-0.8-7.4-1.3-11.2-1.3c-2-0.1-4.1,0.2-6,0.7c-1.3,0.3-2.4,1-3.1,2c-0.5,0.8-0.8,1.8-0.8,2.7
		c0,0.9,0.4,1.8,1,2.6c0.9,1.1,2.1,2,3.4,2.7c2.3,1.2,4.7,2.3,7.1,3.3c5.4,1.8,10.6,4.3,15.4,7.3c3.3,2.1,6,4.9,7.9,8.3
		c1.6,3.2,2.4,6.7,2.3,10.3C203.7,146.3,202.4,150.9,199.8,154.8z"/>
</g>
</svg>
